<svg xmlns="http://www.w3.org/2000/svg" xmlns:xlink="http://www.w3.org/1999/xlink" id="Layer_1" x="0" y="0" version="1.1" viewBox="0 0 72 19" style="enable-background:new 0 0 72 19" xml:space="preserve"><style type="text/css">.st0{fill:#81d1df}.st1{fill:#5c3a57}.st2{fill:#49c4a1}.st3{fill:#e62a6d}.st4{fill:#edb525}.st5{fill:#dfa22f}.st6{fill:#3cb187}.st7{fill:#ce1e5b}.st8{fill:#392538}.st9{fill:#bb242a}.st10{fill:#72c5cd}.st11{fill:#248c73}.st12{fill:#62803a}.st13{enable-background:new}.st14{fill:#484848}</style><g id="CUHFOO.tif"><g><path d="M13.3,19c-4.4,0-8.8,0-13.2,0c0-6.3,0-12.6,0-18.9c4.4,0,8.8,0,13.2,0c0,0.4,0,0.7,0,1.1c-4,0-8.1,0-12.1,0 c0,5.6,0,11.1,0,16.7c4,0,8.1,0,12.1,0C13.3,18.3,13.3,18.6,13.3,19z" class="st0"/><path d="M58.8,0.1c4.4,0,8.8,0,13.2,0c0,6.3,0,12.6,0,18.9c-4.4,0-8.8,0-13.2,0c0-0.4,0-0.7,0-1.1c4,0,8.1,0,12.1,0 c0-5.6,0-11.1,0-16.7c-4,0-8.1,0-12.1,0C58.8,0.8,58.8,0.4,58.8,0.1z" class="st1"/><path d="M13.3,1.2c0-0.4,0-0.7,0-1.1c5.1,0,10.1,0,15.2,0c0,0.4,0,0.7,0,1.1C23.4,1.2,18.4,1.2,13.3,1.2z" class="st2"/><path d="M58.8,0.1c0,0.4,0,0.7,0,1.1c-5.1,0-10.1,0-15.2,0c0-0.4,0-0.7,0-1.1C48.7,0.1,53.8,0.1,58.8,0.1z" class="st3"/><path d="M13.3,19c0-0.4,0-0.7,0-1.1c5.1,0,10.1,0,15.2,0c0,0.4,0,0.7,0,1.1C23.4,19,18.4,19,13.3,19z" class="st2"/><path d="M58.8,17.9c0,0.4,0,0.7,0,1.1c-5.1,0-10.1,0-15.2,0c0-0.4,0-0.7,0-1.1C48.7,17.9,53.8,17.9,58.8,17.9z" class="st3"/><path d="M43.6,0.1c0,0.4,0,0.7,0,1.1c-5,0-10,0-15,0c0-0.4,0-0.7,0-1.1C33.6,0.1,38.6,0.1,43.6,0.1z" class="st4"/><path d="M28.5,19c0-0.4,0-0.7,0-1.1c5,0,10,0,15.1,0c0,0.4,0,0.7,0,1.1C38.5,19,33.5,19,28.5,19z" class="st4"/><path d="M28.6,0.1c0,0.4,0,0.7,0,1.1h-0.1c0-0.4,0-0.7,0-1.1C28.5,0.1,28.5,0.1,28.6,0.1z" class="st4"/><path d="M43.5,19c0-0.4,0-0.7,0-1.1h0.1C43.6,18.3,43.6,18.6,43.5,19C43.6,19,43.6,19,43.5,19z" class="st4"/></g></g><g><path d="M12.7,5.9c-0.1-0.4-0.6-0.7-1.1-0.5C11.2,5.5,11,6,11.1,6.5l2.2,6.7c0.1,0.4,0.6,0.6,1,0.5s0.7-0.6,0.6-1 L12.7,5.9" class="st5"/><path d="M9.3,7c-0.1-0.4-0.6-0.6-1-0.5C7.8,6.6,7.6,7.1,7.7,7.6l2.2,6.7c0.1,0.4,0.6,0.6,1,0.5s0.7-0.6,0.6-1L9.3,7" class="st6"/><path d="M15.4,11.5c0.4-0.1,0.7-0.6,0.5-1.1c-0.1-0.4-0.6-0.7-1.1-0.5L8.2,12c-0.4,0.1-0.6,0.6-0.5,1s0.6,0.7,1,0.6 L15.4,11.5" class="st7"/><path d="M9.6,13.4l1.6-0.5l-0.5-1.6l-1.6,0.5L9.6,13.4" class="st8"/><path d="M13,12.3c0.6-0.2,1.2-0.4,1.6-0.5l-0.5-1.6l-1.6,0.5L13,12.3" class="st9"/><path d="M14.3,8.1c0.5-0.1,0.7-0.6,0.6-1s-0.6-0.7-1.1-0.5L7.1,8.7c-0.4,0.1-0.6,0.6-0.5,1s0.6,0.7,1,0.6L14.3,8.1" class="st10"/><path d="M8.5,10c0.4-0.1,1-0.3,1.6-0.5C9.9,8.9,9.7,8.3,9.6,7.9L8,8.4L8.5,10" class="st11"/><path d="M11.9,8.9l1.6-0.5c-0.2-0.5-0.3-1.1-0.5-1.6l-1.6,0.5L11.9,8.9" class="st12"/></g><g class="st13"><path d="M20,11.6l0.4-0.8c0.2,0.2,0.4,0.3,0.8,0.3c0.4,0,0.7-0.3,0.7-0.8V7.2h1v3.2c0,1.1-0.7,1.6-1.7,1.6 C20.8,12,20.4,11.9,20,11.6z" class="st14"/><path d="M23.7,10.2c0-1,0.7-1.8,1.8-1.8c1.1,0,1.8,0.8,1.8,1.8c0,1-0.7,1.8-1.8,1.8C24.4,12,23.7,11.2,23.7,10.2z M26.4,10.2c0-0.5-0.3-1-0.9-1c-0.6,0-0.9,0.5-0.9,1c0,0.5,0.3,1,0.9,1C26.1,11.2,26.4,10.8,26.4,10.2z" class="st14"/><path d="M27.9,7.7c0-0.2,0.2-0.4,0.5-0.4c0.3,0,0.5,0.2,0.5,0.4c0,0.2-0.2,0.4-0.5,0.4C28.2,8.2,27.9,8,27.9,7.7z M28,12V8.5h0.9V12H28z" class="st14"/><path d="M32.2,12V9.9c0-0.5-0.2-0.6-0.6-0.6c-0.4,0-0.6,0.2-0.8,0.4V12h-0.9V8.5h0.9V9c0.2-0.3,0.6-0.5,1.2-0.5 c0.8,0,1.1,0.4,1.1,1.1V12H32.2z" class="st14"/><path d="M35.6,10.2c0-1,0.7-1.8,1.8-1.8c1.1,0,1.8,0.8,1.8,1.8c0,1-0.7,1.8-1.8,1.8C36.2,12,35.6,11.2,35.6,10.2z M38.3,10.2c0-0.5-0.3-1-0.9-1c-0.6,0-0.9,0.5-0.9,1c0,0.5,0.3,1,0.9,1C37.9,11.2,38.3,10.8,38.3,10.2z" class="st14"/><path d="M42.2,12v-0.4C42,11.8,41.6,12,41,12c-0.8,0-1.1-0.4-1.1-1.1V8.5h0.9v2.1c0,0.5,0.2,0.6,0.6,0.6 c0.4,0,0.6-0.2,0.8-0.4V8.5h0.9V12H42.2z" class="st14"/><path d="M44,12V8.5h0.9V9c0.2-0.3,0.7-0.6,1.1-0.6v0.9c-0.1,0-0.1,0-0.2,0c-0.3,0-0.7,0.2-0.8,0.4V12H44z" class="st14"/><path d="M48.1,11.3l0.6-0.8c0.3,0.3,0.9,0.6,1.5,0.6c0.6,0,0.8-0.3,0.8-0.5c0-0.8-2.7-0.3-2.7-2.1 c0-0.8,0.7-1.5,1.8-1.5c0.8,0,1.4,0.2,1.9,0.7l-0.6,0.7C51,8.2,50.5,8,50,8c-0.4,0-0.7,0.2-0.7,0.5c0,0.8,2.7,0.2,2.7,2 c0,0.9-0.6,1.5-1.9,1.5C49.2,12,48.6,11.7,48.1,11.3z" class="st14"/><path d="M52.7,12V7.2h0.9V12H52.7z" class="st14"/><path d="M56.6,12v-0.4c-0.2,0.3-0.6,0.4-1.1,0.4c-0.6,0-1.2-0.4-1.2-1.1c0-0.8,0.6-1.1,1.2-1.1c0.5,0,0.9,0.2,1.1,0.4 V9.7c0-0.3-0.3-0.6-0.8-0.6c-0.4,0-0.7,0.1-1,0.4L54.5,9c0.4-0.4,1-0.5,1.5-0.5c0.8,0,1.5,0.3,1.5,1.3V12H56.6z M56.6,11.1v-0.4 c-0.1-0.2-0.4-0.3-0.7-0.3c-0.4,0-0.6,0.2-0.6,0.5c0,0.3,0.3,0.5,0.6,0.5C56.1,11.4,56.4,11.3,56.6,11.1z" class="st14"/><path d="M58.2,10.2c0-1.1,0.8-1.8,1.8-1.8c0.7,0,1.1,0.3,1.4,0.6l-0.6,0.6c-0.2-0.2-0.4-0.4-0.7-0.4 c-0.5,0-0.9,0.4-0.9,1c0,0.6,0.4,1,0.9,1c0.3,0,0.6-0.1,0.7-0.4l0.6,0.5C61.1,11.7,60.7,12,60,12C58.9,12,58.2,11.3,58.2,10.2z" class="st14"/><path d="M64.2,12l-0.9-1.3l-0.4,0.4V12h-0.9V7.2h0.9V10l1.3-1.5h1.1l-1.4,1.6l1.4,1.9H64.2z" class="st14"/><path d="M65.7,11.5c0-0.3,0.3-0.6,0.6-0.6s0.6,0.3,0.6,0.6c0,0.3-0.3,0.6-0.6,0.6S65.7,11.8,65.7,11.5z M65.8,10.4 l-0.1-3.2h1.1l-0.1,3.2H65.8z" class="st14"/></g></svg>