<svg xmlns="http://www.w3.org/2000/svg" xmlns:svg="http://www.w3.org/2000/svg" id="Layer_1" x="0" y="0" version="1.1" viewBox="0 0 72 19" style="enable-background:new 0 0 72 19" xml:space="preserve"><metadata id="metadata27"/><style id="style2" type="text/css">.st0{fill:#81b372}.st1{font-family:&apos;ProximaNova-Bold&apos;}.st2{font-size:7.1397px}</style><text id="text4" x="19.105" y="11.824" class="st0 st1 st2" style="font-size:7.13969994px;font-family:ProximaNova-Bold;fill:#1c2224"><tspan style="font-style:normal;font-variant:normal;font-weight:400;font-stretch:normal;font-size:6.66666667px;line-height:1.25;font-family:arial;-inkscape-font-specification:arial;fill:#1c2224" id="tspan45">Join Mailing List</tspan></text><g id="g20" style="fill:#08a"><path id="path18" d="M71,1v17H1V1H71 M72,0H0v19h72V0L72,0z" class="st0" style="fill:#08a"/></g><g id="g43" transform="matrix(0.59665036,0,0,0.59665036,2.9594804,2.5604767)" style="stroke-width:1.67602348"><path id="path29" d="M 0,0 H 24 V 24 H 0 Z" style="fill:none;stroke-width:1.67602348"/><path id="path31" d="M 20,3.5493177 H 4 c -1.1,0 -1.99,0.9 -1.99,2 L 2,17.549318 c 0,1.1 0.9,2 2,2 h 16 c 1.1,0 2,-0.9 2,-2 V 5.5493177 c 0,-1.1 -0.9,-2 -2,-2 z m 0,4 -8,5.0000003 -8,-5.0000003 v -2 l 8,5.0000003 8,-5.0000003 z" style="fill:#08a;stroke-width:1.67602348"/></g></svg>