<svg xmlns="http://www.w3.org/2000/svg" xmlns:xlink="http://www.w3.org/1999/xlink" id="Layer_1" x="0" y="0" version="1.1" viewBox="0 0 72 19" style="enable-background:new 0 0 72 19" xml:space="preserve"><style type="text/css">.st0{fill:#81b372}.st1{font-family:&apos;ProximaNova-Bold&apos;}.st2{font-size:7.1397px}.st3{fill:#fff}</style><text class="st0 st1 st2" transform="matrix(1 0 0 1 19.4791 11.9512)">Read the Docs</text><g><g><path d="M6.5,4.3c-0.7,0-1.3,0.6-1.3,1.3v8.5c0,0.1,0,0.2,0,0.3c0.1,0.6,0.7,1,1.3,1h0.9V16l0.9-0.6L9.4,16v-0.6H14 V4.3H6.5z M7.5,15H6.5c-0.4,0-0.7-0.2-0.8-0.6h1.8V15z M8.9,15.3L8.5,15l-0.1,0l-0.1,0l-0.5,0.3v-1.4h1.1V15.3z M13.6,15H9.4v-0.6 h4.2V15z M13.6,14H9.4v-0.5H7.5V14H5.6c0-0.5,0.4-0.8,0.9-0.8h7.1V14z M13.6,12.7H6.5c-0.4,0-0.7,0.1-0.9,0.4V5.6 c0-0.5,0.4-0.9,0.9-0.9h7.1V12.7z" class="st0"/></g><path d="M5.4,13.1l8.4-0.1l0-8.5L6.3,4.6c-0.5,0-0.9,0.4-0.9,0.9V13.1z" class="st0"/><g><rect width=".4" height="6.7" x="6.4" y="5.4" class="st3"/></g></g><g><path d="M71,1v17H1V1H71 M72,0H0v19h72V0L72,0z" class="st0"/></g></svg>